<mxfile host="app.diagrams.net" agent="Mozilla/5.0 (Windows NT 10.0; Win64; x64) AppleWebKit/537.36 (KHTML, like Gecko) Chrome/131.0.0.0 Safari/537.36" version="25.0.3">
  <diagram name="Page-1" id="nFfQVPc0ObgrWP7YOnNx">
    <mxGraphModel dx="1050" dy="522" grid="1" gridSize="10" guides="1" tooltips="1" connect="1" arrows="1" fold="1" page="1" pageScale="1" pageWidth="827" pageHeight="1169" math="0" shadow="0">
      <root>
        <mxCell id="0" />
        <mxCell id="1" parent="0" />
        <mxCell id="5kgVSUj0-b8ziI9tamgL-3" value="" style="edgeStyle=orthogonalEdgeStyle;rounded=0;orthogonalLoop=1;jettySize=auto;html=1;" parent="1" source="5kgVSUj0-b8ziI9tamgL-1" target="5kgVSUj0-b8ziI9tamgL-2" edge="1">
          <mxGeometry relative="1" as="geometry" />
        </mxCell>
        <mxCell id="5kgVSUj0-b8ziI9tamgL-1" value="เริ่มต้น" style="ellipse;whiteSpace=wrap;html=1;" parent="1" vertex="1">
          <mxGeometry x="309" y="40" width="210" height="60" as="geometry" />
        </mxCell>
        <mxCell id="5kgVSUj0-b8ziI9tamgL-5" value="" style="edgeStyle=orthogonalEdgeStyle;rounded=0;orthogonalLoop=1;jettySize=auto;html=1;" parent="1" source="5kgVSUj0-b8ziI9tamgL-2" target="5kgVSUj0-b8ziI9tamgL-4" edge="1">
          <mxGeometry relative="1" as="geometry" />
        </mxCell>
        <mxCell id="5kgVSUj0-b8ziI9tamgL-2" value="กำหนด a = 10" style="shape=parallelogram;perimeter=parallelogramPerimeter;whiteSpace=wrap;html=1;fixedSize=1;" parent="1" vertex="1">
          <mxGeometry x="321" y="150" width="186" height="60" as="geometry" />
        </mxCell>
        <mxCell id="5kgVSUj0-b8ziI9tamgL-7" value="" style="edgeStyle=orthogonalEdgeStyle;rounded=0;orthogonalLoop=1;jettySize=auto;html=1;" parent="1" source="5kgVSUj0-b8ziI9tamgL-4" target="5kgVSUj0-b8ziI9tamgL-6" edge="1">
          <mxGeometry relative="1" as="geometry" />
        </mxCell>
        <mxCell id="5kgVSUj0-b8ziI9tamgL-4" value="กำหนด b = 20" style="shape=parallelogram;perimeter=parallelogramPerimeter;whiteSpace=wrap;html=1;fixedSize=1;" parent="1" vertex="1">
          <mxGeometry x="321" y="250" width="186" height="60" as="geometry" />
        </mxCell>
        <mxCell id="5kgVSUj0-b8ziI9tamgL-9" value="" style="edgeStyle=orthogonalEdgeStyle;rounded=0;orthogonalLoop=1;jettySize=auto;html=1;" parent="1" source="5kgVSUj0-b8ziI9tamgL-6" target="5kgVSUj0-b8ziI9tamgL-8" edge="1">
          <mxGeometry relative="1" as="geometry" />
        </mxCell>
        <mxCell id="5kgVSUj0-b8ziI9tamgL-6" value="กำหนด c = &quot;Haha&quot;" style="shape=parallelogram;perimeter=parallelogramPerimeter;whiteSpace=wrap;html=1;fixedSize=1;" parent="1" vertex="1">
          <mxGeometry x="321" y="360" width="186" height="60" as="geometry" />
        </mxCell>
        <mxCell id="5kgVSUj0-b8ziI9tamgL-11" value="" style="edgeStyle=orthogonalEdgeStyle;rounded=0;orthogonalLoop=1;jettySize=auto;html=1;" parent="1" source="5kgVSUj0-b8ziI9tamgL-8" target="5kgVSUj0-b8ziI9tamgL-10" edge="1">
          <mxGeometry relative="1" as="geometry" />
        </mxCell>
        <mxCell id="5kgVSUj0-b8ziI9tamgL-8" value="กำหนด d = &quot;a&quot;" style="shape=parallelogram;perimeter=parallelogramPerimeter;whiteSpace=wrap;html=1;fixedSize=1;" parent="1" vertex="1">
          <mxGeometry x="321" y="460" width="186" height="60" as="geometry" />
        </mxCell>
        <mxCell id="5kgVSUj0-b8ziI9tamgL-13" value="" style="edgeStyle=orthogonalEdgeStyle;rounded=0;orthogonalLoop=1;jettySize=auto;html=1;" parent="1" source="5kgVSUj0-b8ziI9tamgL-10" target="5kgVSUj0-b8ziI9tamgL-12" edge="1">
          <mxGeometry relative="1" as="geometry" />
        </mxCell>
        <mxCell id="5kgVSUj0-b8ziI9tamgL-10" value="แสดง a" style="shape=parallelogram;perimeter=parallelogramPerimeter;whiteSpace=wrap;html=1;fixedSize=1;" parent="1" vertex="1">
          <mxGeometry x="321" y="560" width="186" height="60" as="geometry" />
        </mxCell>
        <mxCell id="5kgVSUj0-b8ziI9tamgL-15" value="" style="edgeStyle=orthogonalEdgeStyle;rounded=0;orthogonalLoop=1;jettySize=auto;html=1;" parent="1" source="5kgVSUj0-b8ziI9tamgL-12" target="5kgVSUj0-b8ziI9tamgL-14" edge="1">
          <mxGeometry relative="1" as="geometry" />
        </mxCell>
        <mxCell id="5kgVSUj0-b8ziI9tamgL-12" value="แสดง b" style="shape=parallelogram;perimeter=parallelogramPerimeter;whiteSpace=wrap;html=1;fixedSize=1;" parent="1" vertex="1">
          <mxGeometry x="321" y="670" width="186" height="60" as="geometry" />
        </mxCell>
        <mxCell id="5kgVSUj0-b8ziI9tamgL-17" value="" style="edgeStyle=orthogonalEdgeStyle;rounded=0;orthogonalLoop=1;jettySize=auto;html=1;" parent="1" source="5kgVSUj0-b8ziI9tamgL-14" target="5kgVSUj0-b8ziI9tamgL-16" edge="1">
          <mxGeometry relative="1" as="geometry" />
        </mxCell>
        <mxCell id="5kgVSUj0-b8ziI9tamgL-14" value="แสดง c" style="shape=parallelogram;perimeter=parallelogramPerimeter;whiteSpace=wrap;html=1;fixedSize=1;" parent="1" vertex="1">
          <mxGeometry x="321" y="770" width="186" height="60" as="geometry" />
        </mxCell>
        <mxCell id="5kgVSUj0-b8ziI9tamgL-19" value="" style="edgeStyle=orthogonalEdgeStyle;rounded=0;orthogonalLoop=1;jettySize=auto;html=1;" parent="1" source="5kgVSUj0-b8ziI9tamgL-16" target="5kgVSUj0-b8ziI9tamgL-18" edge="1">
          <mxGeometry relative="1" as="geometry" />
        </mxCell>
        <mxCell id="5kgVSUj0-b8ziI9tamgL-16" value="แสดง d" style="shape=parallelogram;perimeter=parallelogramPerimeter;whiteSpace=wrap;html=1;fixedSize=1;" parent="1" vertex="1">
          <mxGeometry x="321" y="880" width="186" height="60" as="geometry" />
        </mxCell>
        <mxCell id="5kgVSUj0-b8ziI9tamgL-18" value="จบ" style="ellipse;whiteSpace=wrap;html=1;" parent="1" vertex="1">
          <mxGeometry x="309" y="1000" width="210" height="60" as="geometry" />
        </mxCell>
      </root>
    </mxGraphModel>
  </diagram>
</mxfile>
